<svg width="44" height="43" viewBox="0 0 44 43" fill="none" xmlns="http://www.w3.org/2000/svg">
<rect x="0.864899" width="42.2225" height="42.2225" rx="8" fill="url(#paint0_linear_1610_34423)"/>
<path opacity="0.289597" fill-rule="evenodd" clip-rule="evenodd" d="M17.9488 8.09381L34.3181 13.0687C34.9425 13.2584 35.3686 13.8282 35.3686 14.4735V28.301C35.3686 29.1128 34.7023 29.7708 33.8805 29.7708C33.7321 29.7708 33.5846 29.7489 33.4428 29.7058L17.0735 24.731C16.4491 24.5412 16.023 23.9714 16.023 23.3261V9.49865C16.023 8.68688 16.6893 8.02881 17.5111 8.02881C17.6595 8.02881 17.807 8.05072 17.9488 8.09381Z" fill="#0DA5D5"/>
<path opacity="0.6" fill-rule="evenodd" clip-rule="evenodd" d="M14.2319 10.4463L30.6012 15.4212C31.2256 15.611 31.6517 16.1808 31.6517 16.826V30.6535C31.6517 31.4653 30.9854 32.1234 30.1636 32.1234C30.0152 32.1234 29.8677 32.1015 29.7259 32.0584L13.3566 27.0835C12.7322 26.8938 12.3061 26.3239 12.3061 25.6787V11.8512C12.3061 11.0394 12.9724 10.3813 13.7942 10.3813C13.9426 10.3813 14.0901 10.4033 14.2319 10.4463Z" fill="#16A5D1"/>
<path fill-rule="evenodd" clip-rule="evenodd" d="M10.5095 13.3856L26.8788 18.3604C27.5032 18.5502 27.9293 19.12 27.9293 19.7652V33.5979C27.9293 34.4097 27.263 35.0678 26.4412 35.0678C26.2941 35.0678 26.1478 35.0462 26.0071 35.0039L21.6048 33.6778V37.427C21.6048 37.8329 21.2716 38.1619 20.8607 38.1619C20.6219 38.1619 20.3976 38.0487 20.2577 37.8575L16.1671 32.2675C16.0743 32.1407 15.943 32.0465 15.7923 31.9985L9.6153 30.0319C9.00047 29.8362 8.58371 29.271 8.58371 28.6329V14.7904C8.58371 13.9786 9.24996 13.3206 10.0718 13.3206C10.2202 13.3206 10.3677 13.3425 10.5095 13.3856Z" fill="#28B7E3"/>
<path d="M12.8563 21.3451C12.2831 20.2183 13.338 18.9498 14.5536 19.3041L19.1077 20.6312C19.5975 20.7739 19.9794 21.1573 20.1197 21.647C20.4456 22.7852 19.3719 23.8314 18.2399 23.4786L13.7117 22.0669C13.3406 21.9512 13.0323 21.691 12.8563 21.3451Z" fill="white"/>
<path d="M22.0344 28.8507C22.8831 28.2112 22.6631 26.8858 21.6538 26.5578L17.136 25.0894C16.7271 24.9566 16.2784 25.0318 15.9345 25.2908C15.0858 25.9303 15.3058 27.2557 16.3151 27.5837L20.833 29.0521C21.2418 29.185 21.6906 29.1097 22.0344 28.8507Z" fill="white"/>
<path d="M26.7592 6.34985H29.5743V11.4531L31.6315 9.07696H35.0218L32.4435 11.5881L35.1707 16.2458H32.0646L30.6096 13.3701L29.5743 14.3827V16.2458H26.7592V6.34985Z" fill="white"/>
<defs>
<linearGradient id="paint0_linear_1610_34423" x1="0.864898" y1="11.1741" x2="36.3664" y2="45.0263" gradientUnits="userSpaceOnUse">
<stop stop-color="#0088B2"/>
<stop offset="1" stop-color="#0F5B73"/>
</linearGradient>
</defs>
</svg>
